<svg id="Layer_1" data-name="Layer 1" xmlns="http://www.w3.org/2000/svg" viewBox="0 0 1000 1000"><defs><style>.cls-1{fill:#fff;}.cls-2{fill:#232931;}</style></defs><title>Icon_Twitter</title><circle class="cls-1" cx="500" cy="500" r="386.68"/><path class="cls-2" d="M738.67,352a195.45,195.45,0,0,1-56.25,15.41,98.26,98.26,0,0,0,43.07-54.17A196,196,0,0,1,663.3,337a98,98,0,0,0-166.88,89.33A278,278,0,0,1,294.56,324a98,98,0,0,0,30.3,130.75,97.37,97.37,0,0,1-44.35-12.26c0,.41,0,.83,0,1.24a98,98,0,0,0,78.57,96,98.18,98.18,0,0,1-44.23,1.69,98,98,0,0,0,91.49,68,197.72,197.72,0,0,1-145,40.56,277,277,0,0,0,150.11,44c180.13,0,278.64-149.22,278.64-278.65q0-6.36-.29-12.66A198.75,198.75,0,0,0,738.67,352Zm0,0"/></svg>