<svg id="Layer_1" data-name="Layer 1" xmlns="http://www.w3.org/2000/svg" viewBox="0 0 1000 1000"><defs><style>.cls-1{fill:#fff;}.cls-2{fill:#232931;}</style></defs><title>Icon_Linkedin</title><circle class="cls-1" cx="500" cy="500" r="386.69"/><path class="cls-2" d="M722.22,530.86V684.77H633V541.18c0-36.06-12.88-60.68-45.19-60.68-24.66,0-39.3,16.58-45.77,32.63-2.35,5.74-3,13.7-3,21.75V684.77H449.84s1.2-243.2,0-268.37h89.24v38c-.18.3-.43.59-.59.88h.59v-.88c11.86-18.25,33-44.33,80.42-44.33,58.71,0,102.72,38.35,102.72,120.77ZM356.48,287C326,287,306,307.06,306,333.38c0,25.77,19.39,46.38,49.32,46.38h.58c31.12,0,50.47-20.61,50.47-46.38C405.77,307.06,387,287,356.48,287ZM311.29,684.77H400.5V416.39H311.29Zm0,0"/></svg>