<svg id="Layer_1" data-name="Layer 1" xmlns="http://www.w3.org/2000/svg" viewBox="0 0 858 434"><defs><style>.cls-1{fill:#fff;}</style></defs><title>Artboard 1</title><path class="cls-1" d="M382.23,177.87H417.6v98.59h19.68V177.87h35.37v-18H382.23Zm123.12,48.88h55.88V209.23H505.35V178.37h62.22V159.85H485.66V276.46h83.91V257.94H505.35Zm106.09-39q12-11.42,29.7-11.43a44.17,44.17,0,0,1,17.43,3.17q7.42,3.17,15.77,11.17L686.85,177q-18.19-20-45.29-20t-44.88,17.35q-17.77,17.35-17.77,43.37t17.43,43q17.43,17,43.88,17t45-20.52l-12.68-13a60.31,60.31,0,0,1-15.35,10.92,41.17,41.17,0,0,1-17.52,3.42q-16.34,0-28.28-11.93T599.43,217Q599.43,199.23,611.44,187.79Zm167-27.94V210.4H720.54V159.85H700.86V276.46h19.68V228.75h57.88v47.71h19.69V159.85Z"/><path class="cls-1" d="M126,276.46h19.69v-48H197.4V210.23H145.68v-32h57.89l.17-18.35H126Zm92.42,0H238.1V159.85H218.41Zm156.43-67c0-.16,0-.32,0-.48q-.2-3.71-.56-7.37c0-.28-.06-.56-.09-.83q-.36-3.5-.88-7c0-.31-.09-.63-.15-.95q-.53-3.39-1.2-6.75l-.2-1c-.46-2.23-1-4.44-1.53-6.64-.08-.3-.15-.6-.23-.91q-.88-3.37-1.9-6.67l-.2-.68c-.67-2.14-1.39-4.26-2.15-6.36-.24-.65-.48-1.3-.73-2s-.54-1.38-.81-2.06h-21.7a138.11,138.11,0,0,1,8.35,91.57l-69-91.57H262.12V276.46h19.69V191.38l60,85.08h21.79c.54-1.34,1.1-2.69,1.6-4.05.2-.53.38-1.06.58-1.58q1-2.83,1.93-5.7c.17-.51.33-1,.48-1.54q.9-2.95,1.69-5.94l.37-1.43q.78-3.11,1.44-6.26.13-.62.26-1.24.66-3.28,1.18-6.61c.06-.34.11-.69.16-1q.53-3.47.89-7c0-.26.06-.52.09-.77q.37-3.71.57-7.47c0-.14,0-.27,0-.41.13-2.65.2-5.32.2-8S375,212.08,374.84,209.44Z"/><path class="cls-1" d="M433.43,307.78a20.29,20.29,0,0,1,8,1.46,25.16,25.16,0,0,1,7.25,5.14l5.76-6.29a27,27,0,0,0-20.83-9.2q-12.47,0-20.64,8a26.74,26.74,0,0,0-8.17,19.95q0,12,8,19.79T433,354.44q12.16,0,20.68-9.44l-5.83-6a27.77,27.77,0,0,1-7.06,5,19,19,0,0,1-8.06,1.58,17.77,17.77,0,0,1-13-5.49,18.53,18.53,0,0,1-5.49-13.66A17.74,17.74,0,0,1,419.77,313,19.08,19.08,0,0,1,433.43,307.78Zm54.33,46h9V300.19h-9Zm89.77-36.22q0-9.13-5.29-13.27t-17.57-4.14H534.71v53.63h9.05v-18h11.89l12.81,18H580l-14-19.49Q577.52,330.88,577.52,317.6Zm-22.48,10H543.76V308.4h11.51q7.29,0,10.13,2t2.84,7.22q0,5.26-2.77,7.63T555,327.58Zm83.71-19.8a20.29,20.29,0,0,1,8,1.46,25.15,25.15,0,0,1,7.25,5.14l5.75-6.29a27,27,0,0,0-20.83-9.2q-12.47,0-20.64,8a26.74,26.74,0,0,0-8.17,19.95q0,12,8,19.79t20.18,7.83q12.16,0,20.68-9.44l-5.83-6a27.86,27.86,0,0,1-7.06,5,19,19,0,0,1-8.06,1.58,17.76,17.76,0,0,1-13-5.49,18.53,18.53,0,0,1-5.49-13.66A17.73,17.73,0,0,1,625.09,313,19.08,19.08,0,0,1,638.75,307.78Zm63.38-7.6h-9.05v53.63H726.6v-8.59H702.13Zm66.45,45.12V331h25.71V322.9H768.57v-14.2H797.2v-8.52H759.52v53.63h38.59V345.3Z"/><path class="cls-1" d="M334.59,289.7a137.92,137.92,0,1,1,.92-143.09h22.77a157.92,157.92,0,1,0-.77,143.09Z"/></svg>